<?xml version="1.0" encoding="UTF-8"?>
<svg id="Layer_1" data-name="Layer 1" xmlns="http://www.w3.org/2000/svg" width="199.56" height="29.03" xmlns:xlink="http://www.w3.org/1999/xlink" viewBox="0 0 199.56 29.03">
  <defs>
    <style>
      .cls-1 {
        fill: url(#linear-gradient);
      }

      .cls-1, .cls-2, .cls-3, .cls-4, .cls-5, .cls-6 {
        stroke-width: 0px;
      }

      .cls-2 {
        fill: #e00;
      }

      .cls-3 {
        fill: #fff;
      }

      .cls-4 {
        fill: url(#linear-gradient-2);
      }

      .cls-5 {
        fill: url(#linear-gradient-3);
      }

      .cls-6 {
        fill: url(#linear-gradient-4);
      }
    </style>
    <linearGradient id="linear-gradient" x1="143.9" y1="18.38" x2="162.79" y2="18.38" gradientUnits="userSpaceOnUse">
      <stop offset="0" stop-color="#a30c18"/>
      <stop offset="1" stop-color="#e00"/>
    </linearGradient>
    <linearGradient id="linear-gradient-2" x1="164.2" x2="180.14" xlink:href="#linear-gradient"/>
    <linearGradient id="linear-gradient-3" x1="181.61" x2="199.56" xlink:href="#linear-gradient"/>
    <linearGradient id="linear-gradient-4" x1="12.62" y1="41.91" x2="12.62" y2="18.35" gradientUnits="userSpaceOnUse">
      <stop offset=".48" stop-color="#ff9c21"/>
      <stop offset=".55" stop-color="#fe961f"/>
      <stop offset=".63" stop-color="#fc861c"/>
      <stop offset=".71" stop-color="#f96c16"/>
      <stop offset=".81" stop-color="#f5480f"/>
      <stop offset=".91" stop-color="#f01a05"/>
      <stop offset=".96" stop-color="#e00"/>
    </linearGradient>
  </defs>
  <g>
    <path class="cls-3" d="m47.82,29.03c-1.63,0-3.13-.26-4.5-.79-1.37-.53-2.57-1.27-3.59-2.24-1.02-.96-1.81-2.09-2.37-3.38-.56-1.29-.84-2.71-.84-4.24s.28-2.97.84-4.25c.56-1.28,1.35-2.41,2.37-3.37,1.02-.96,2.21-1.71,3.57-2.24,1.36-.53,2.86-.79,4.49-.79s3.12.26,4.49.78c1.36.52,2.55,1.26,3.57,2.22,1.02.96,1.81,2.09,2.37,3.38.56,1.29.84,2.72.84,4.27s-.28,2.95-.84,4.25c-.56,1.3-1.35,2.44-2.37,3.4-1.02.96-2.21,1.7-3.57,2.22-1.36.52-2.85.78-4.46.78Zm-.03-4.03c.92,0,1.77-.16,2.54-.49.77-.32,1.46-.78,2.04-1.38.59-.6,1.04-1.29,1.37-2.09s.49-1.68.49-2.66-.16-1.87-.49-2.66c-.32-.79-.78-1.49-1.37-2.09-.59-.6-1.27-1.06-2.04-1.38-.77-.32-1.62-.49-2.54-.49s-1.78.16-2.56.49c-.78.32-1.47.78-2.04,1.38-.58.6-1.03,1.29-1.35,2.09-.32.79-.49,1.68-.49,2.66s.16,1.87.49,2.66c.32.79.77,1.49,1.35,2.09.58.6,1.26,1.06,2.04,1.38.78.32,1.64.49,2.56.49Z"/>
    <path class="cls-3" d="m72.5,29.03c-1.59,0-3.06-.26-4.43-.78-1.36-.52-2.54-1.26-3.54-2.22-1-.96-1.78-2.09-2.34-3.38-.56-1.29-.84-2.72-.84-4.27s.28-2.97.84-4.27c.56-1.29,1.34-2.42,2.35-3.38,1.01-.96,2.2-1.7,3.56-2.22,1.36-.52,2.84-.78,4.43-.78,1.78,0,3.4.31,4.85.93,1.45.62,2.67,1.53,3.65,2.72l-3.09,2.82c-.69-.8-1.47-1.41-2.34-1.82-.87-.41-1.82-.62-2.84-.62-.96,0-1.84.16-2.65.49-.8.32-1.5.78-2.09,1.37-.59.59-1.04,1.28-1.37,2.09-.32.8-.49,1.7-.49,2.68s.16,1.87.49,2.68c.32.8.78,1.5,1.37,2.09.59.59,1.28,1.04,2.09,1.37.8.32,1.69.49,2.65.49,1.02,0,1.97-.21,2.84-.63.87-.42,1.65-1.03,2.34-1.84l3.09,2.82c-.98,1.2-2.2,2.11-3.65,2.74-1.45.63-3.08.94-4.88.94Z"/>
    <path class="cls-3" d="m84.18,28.68V8.09h4.74v20.59h-4.74Zm4.24-4.71l-.24-5.5,9.85-10.38h5.3l-8.85,9.56-2.71,2.82-3.35,3.5Zm9.85,4.71l-7.32-8.94,3.12-3.41,9.8,12.36h-5.59Z"/>
    <path class="cls-3" d="m110.72,24.85h11.21v3.82h-15.94V8.09h15.56v3.82h-10.83v12.94Zm-.35-8.5h9.91v3.74h-9.91v-3.74Z"/>
    <path class="cls-3" d="m129.99,28.68V11.97h-6.59v-3.88h17.94v3.88h-6.59v16.71h-4.77Z"/>
    <g>
      <path class="cls-1" d="m143.9,28.68V8.09h10.06c2.59,0,4.53.49,5.84,1.47,1.3.98,1.96,2.28,1.96,3.88,0,1.08-.26,2.02-.79,2.81-.53.79-1.26,1.41-2.19,1.84-.93.43-1.99.65-3.16.65l.56-1.24c1.29,0,2.44.22,3.43.65.99.43,1.77,1.06,2.34,1.88.57.82.85,1.83.85,3.03,0,1.77-.7,3.14-2.09,4.13-1.39.99-3.44,1.49-6.15,1.49h-10.65Zm4.74-3.59h5.59c1.22,0,2.15-.21,2.79-.62s.97-1.05.97-1.91-.32-1.53-.97-1.94-1.58-.62-2.79-.62h-5.94v-3.47h5.09c1.16,0,2.04-.2,2.66-.6.62-.4.93-1.01.93-1.84s-.31-1.43-.93-1.82c-.62-.39-1.51-.59-2.66-.59h-4.74v13.41Z"/>
      <path class="cls-4" d="m168.93,24.85h11.21v3.82h-15.94V8.09h15.56v3.82h-10.83v12.94Zm-.35-8.5h9.91v3.74h-9.91v-3.74Z"/>
      <path class="cls-5" d="m188.2,28.68V11.97h-6.59v-3.88h17.94v3.88h-6.59v16.71h-4.77Z"/>
    </g>
  </g>
  <g>
    <path class="cls-3" d="m30.61,22.19c-.68-.99-1.35-1.98-2.03-2.97-.02-.02-.03-.05-.05-.08.04-.01.06-.03.09-.04.39-.15.76-.31,1.13-.5.8-.41,1.54-.92,2.19-1.54,1.03-.98,1.75-2.15,2.19-3.49.31-.96.45-1.95.48-2.96.01-.6,0-1.2-.08-1.8-.09-.7-.24-1.38-.47-2.04-.52-1.47-1.38-2.69-2.6-3.66-.79-.63-1.67-1.1-2.62-1.45-1.1-.4-2.23-.62-3.39-.73-.62-.06-1.23-.07-1.85-.07-2.89,0-5.78,0-8.66,0-.25,0-.51,0-.76,0-.03,0-.06,0-.09,0,.25.41.5.82.74,1.23.24.41.45.84.66,1.28.2.43.38.87.55,1.32.16.45.31.9.44,1.36.13.46.24.92.33,1.39.09.47.17.94.21,1.42.05.47.08.94.12,1.43.02-.03.03-.04.03-.06,0-.03,0-.05,0-.08,0-1.17,0-2.34,0-3.51v-.12h.12c2.03,0,4.06,0,6.09,0,.17,0,.33,0,.5.01.37.01.73.06,1.09.13.54.11,1.06.28,1.54.57.65.38,1.14.91,1.44,1.61.21.49.3,1,.32,1.53.01.37,0,.73-.07,1.09-.15.82-.53,1.52-1.16,2.08-.42.37-.9.62-1.42.81-.68.24-1.39.33-2.1.33-1.29,0-2.58,0-3.86,0h-.12c.04,1.91-.29,3.75-1.01,5.52h.12c1.11,0,2.21,0,3.32,0,.07,0,.11.02.15.08.4.6.81,1.21,1.21,1.81,1.23,1.83,2.45,3.67,3.68,5.5.24.36.48.73.73,1.09h7.3s-.04-.07-.06-.1c-1.46-2.13-2.91-4.26-4.37-6.39Z"/>
    <path class="cls-6" d="m12.08,19.28c-.01.32-.06.63-.13.94-.16.68-.42,1.32-.76,1.93-.47.84-1.05,1.6-1.7,2.31-.05.06-.06.06-.14.02-.45-.19-.91-.29-1.4-.29-.37,0-.73.05-1.09.16-1.35.41-2.37,1.6-2.54,2.99,0,.05-.02.1-.03.17-.76-.38-1.54-.47-2.36-.26-.82.22-1.45.69-1.93,1.41h25.24c-.1-.19-.58-.62-.96-.83-.97-.56-2-.65-3.07-.32-.17-1.2-.74-2.14-1.77-2.76-1.04-.62-2.13-.68-3.25-.26-.01,0-.02-.01-.03-.02-.01-.01-.03-.03-.04-.04-.55-.59-1.05-1.22-1.47-1.9-.57-.92-.99-1.9-1.18-2.97-.02-.13-.04-.26-.06-.39h-1.33s0,.08,0,.11Z"/>
    <path class="cls-2" d="m12.94,0s-.04.04-.05.06c-1.06,1.25-1.93,2.62-2.57,4.13-.55,1.3-.91,2.64-1.11,4.04-.09.63-.15,1.27-.17,1.91-.02.56-.02,1.12,0,1.68.03.64.08,1.27.16,1.9.08.65.19,1.29.31,1.93.23,1.16.53,2.31.89,3.43,0,.03.02.05.03.09h2.96s0,0,0,0h1.8s.02-.06.03-.08c.61-1.74,1.07-3.52,1.31-5.36.09-.71.15-1.42.17-2.13.03-1.1-.03-2.19-.19-3.27-.11-.74-.26-1.46-.46-2.18-.62-2.23-1.67-4.24-3.08-6.07-.02-.02-.03-.04-.05-.06Zm2.13,18.64h-4.53c0-.09,0-.17,0-.24,0-.02,0-.03,0-.05.07-.02,4.38-.02,4.53,0v.3Zm-1.06-9.33s.04-.03.08-.03c-.02.03-.04.05-.06.08-.33.36-.69.68-1.1.94-.07.05-.1.09-.1.18-.01,1.1-.03,2.2-.04,3.3-.01.79-.02,1.57-.03,2.36,0,.52-.02,1.05-.02,1.57,0,.03,0,.06,0,.11-.71.02-1.41.02-2.13.03-.42-1.27-.71-2.57-.86-3.9-.34-3.03,0-5.98,1.04-8.85.54-1.51,1.27-2.93,2.17-4.26,0,0,.02,0,.02,0-.03,1.72-.05,3.45-.08,5.17-.12.02-.24.04-.35.06-.8.19-1.4.88-1.48,1.7-.04.42.02.82.21,1.19.29.56.76.84,1.39.85.4,0,.76-.12,1.1-.33.09-.05.17-.11.25-.17Zm-1.2-3.05c-.43.22-.78.52-1.03.92-.26.4-.38.84-.39,1.33-.14-.32-.11-.9.13-1.34.28-.51.72-.81,1.29-.91Z"/>
    <path class="cls-2" d="m7,18.05c.3,1.28.79,2.49,1.44,3.64.03.05.05.09.09.15.03-.04.05-.07.07-.1.53-.81,1.06-1.62,1.59-2.42.05-.07.06-.13.03-.2-.37-1.16-.69-2.33-.93-3.52-.17-.87-.3-1.75-.36-2.63-.04-.62-.05-1.24.01-1.85,0-.06-.01-.09-.05-.13-.43-.36-.86-.73-1.29-1.09-.02-.01-.04-.03-.06-.04-.01.04-.02.06-.03.09-.18.56-.33,1.12-.45,1.69-.19.87-.31,1.74-.36,2.63-.04.76-.02,1.52.06,2.27.06.52.14,1.03.26,1.54Zm1.16-6.9s0-.06,0-.09h.34s0,.08,0,.11c0,.51,0,1.02,0,1.53.01.66.06,1.32.14,1.97.13,1.12.36,2.22.71,3.29.15.44.31.87.5,1.3.02.04.03.08.05.12-.1.05-.21.09-.31.14-.01-.03-.03-.05-.04-.07-.45-.99-.77-2.02-1-3.09-.13-.63-.23-1.27-.3-1.92-.06-.59-.11-1.17-.11-1.76,0-.51,0-1.03,0-1.54Z"/>
    <path class="cls-2" d="m15.59,19.13c-.02.07-.01.11.02.17.54.82,1.07,1.64,1.61,2.45.02.02.03.05.06.08.02-.03.03-.04.04-.06.62-1.07,1.1-2.21,1.41-3.41.22-.84.35-1.7.4-2.57.03-.6.03-1.2-.01-1.79-.04-.56-.11-1.12-.21-1.68-.15-.82-.35-1.63-.6-2.43,0-.02-.02-.04-.02-.06-.01.01-.03.02-.03.02-.44.37-.88.75-1.33,1.12-.04.03-.05.06-.04.11.01.19.03.39.03.58.02.76-.03,1.52-.12,2.28-.08.69-.21,1.37-.35,2.05-.23,1.06-.52,2.1-.85,3.13Zm1.29-2.79c.11-.53.2-1.06.26-1.59.12-.95.16-1.9.16-2.85,0-.26,0-.51-.01-.77,0-.02,0-.04,0-.07h.34s0,.04,0,.07c0,.56,0,1.12,0,1.68-.02.73-.08,1.47-.17,2.19-.18,1.36-.49,2.69-1.01,3.96-.07.16-.14.32-.21.48-.01.03-.03.05-.04.09-.11-.05-.21-.09-.31-.14.01-.03.02-.05.03-.08.44-.96.75-1.95.96-2.98Z"/>
  </g>
</svg>